<?xml version="1.0" encoding="UTF-8"?>
<svg xmlns="http://www.w3.org/2000/svg" xmlns:xlink="http://www.w3.org/1999/xlink" width="48px" height="48px" viewBox="0 0 48 48" version="1.1">
<g id="surface1">
<path style=" stroke:none;fill-rule:nonzero;fill:rgb(28.235295%,53.725493%,95.686275%);fill-opacity:1;" d="M 8.980469 47.945312 C 7.429688 47.945312 6.132812 47.421875 5.082031 46.371094 C 4.03125 45.320312 3.503906 44.058594 3.503906 42.582031 C 3.503906 42.066406 3.558594 41.59375 3.671875 41.171875 C 3.78125 40.746094 3.945312 40.351562 4.167969 39.980469 L 16.777344 21.121094 C 17.148438 20.605469 17.425781 20.035156 17.609375 19.40625 C 17.792969 18.78125 17.886719 18.152344 17.886719 17.527344 L 17.886719 11.441406 L 16.777344 11.441406 C 16.300781 11.441406 15.902344 11.285156 15.589844 10.972656 C 15.277344 10.660156 15.121094 10.261719 15.121094 9.78125 C 15.121094 9.304688 15.277344 8.90625 15.589844 8.59375 C 15.902344 8.28125 16.300781 8.125 16.777344 8.125 L 31.160156 8.125 C 31.636719 8.125 32.035156 8.28125 32.347656 8.59375 C 32.660156 8.90625 32.820312 9.304688 32.820312 9.78125 C 32.820312 10.261719 32.660156 10.660156 32.347656 10.972656 C 32.035156 11.285156 31.636719 11.441406 31.160156 11.441406 L 30.054688 11.441406 L 30.054688 17.527344 C 30.054688 18.152344 30.144531 18.78125 30.328125 19.40625 C 30.515625 20.035156 30.789062 20.605469 31.160156 21.121094 L 43.714844 39.980469 C 43.9375 40.3125 44.109375 40.691406 44.238281 41.117188 C 44.371094 41.539062 44.433594 42.027344 44.433594 42.582031 C 44.433594 44.09375 43.917969 45.367188 42.886719 46.398438 C 41.851562 47.429688 40.582031 47.945312 39.070312 47.945312 Z M 21.203125 11.441406 L 21.203125 17.527344 C 21.203125 18.484375 21.066406 19.417969 20.789062 20.320312 C 20.511719 21.222656 20.117188 22.082031 19.597656 22.890625 L 12.6875 33.289062 C 12.464844 33.585938 12.308594 33.878906 12.214844 34.175781 C 12.125 34.46875 12.078125 34.765625 12.078125 35.058594 C 12.078125 35.90625 12.390625 36.636719 13.019531 37.246094 C 13.644531 37.851562 14.417969 38.15625 15.339844 38.15625 C 16.375 38.15625 17.40625 37.9375 18.4375 37.492188 C 19.46875 37.050781 20.945312 36.183594 22.863281 34.894531 C 25.40625 33.234375 27.316406 32.082031 28.585938 31.4375 C 29.859375 30.792969 31.140625 30.339844 32.429688 30.082031 C 32.578125 30.046875 32.679688 29.960938 32.734375 29.832031 C 32.789062 29.703125 32.78125 29.566406 32.707031 29.417969 L 28.394531 22.945312 C 27.839844 22.171875 27.425781 21.324219 27.148438 20.402344 C 26.871094 19.480469 26.734375 18.523438 26.734375 17.527344 L 26.734375 11.441406 Z M 21.203125 11.441406 "/>
<path style=" stroke:none;fill-rule:nonzero;fill:rgb(87.058824%,32.549021%,28.235295%);fill-opacity:1;" d="M 13.347656 11.894531 C 13.371094 11.894531 13.378906 11.882812 13.378906 11.863281 C 13.378906 11.050781 13.53125 10.289062 13.839844 9.574219 C 14.148438 8.859375 14.570312 8.238281 15.105469 7.703125 C 15.640625 7.167969 16.261719 6.746094 16.976562 6.4375 C 17.691406 6.128906 18.453125 5.976562 19.265625 5.976562 C 19.285156 5.976562 19.296875 5.964844 19.296875 5.945312 C 19.296875 5.925781 19.285156 5.917969 19.265625 5.917969 C 18.453125 5.917969 17.691406 5.761719 16.976562 5.457031 C 16.261719 5.148438 15.640625 4.726562 15.105469 4.191406 C 14.570312 3.65625 14.148438 3.03125 13.839844 2.320312 C 13.53125 1.605469 13.378906 0.84375 13.378906 0.03125 C 13.378906 0.0117188 13.371094 0 13.347656 0 C 13.328125 0 13.320312 0.0117188 13.320312 0.03125 C 13.320312 0.84375 13.167969 1.605469 12.859375 2.320312 C 12.550781 3.03125 12.128906 3.65625 11.59375 4.191406 C 11.058594 4.726562 10.4375 5.148438 9.722656 5.457031 C 9.007812 5.761719 8.246094 5.917969 7.433594 5.917969 C 7.414062 5.917969 7.402344 5.925781 7.402344 5.945312 C 7.402344 5.964844 7.414062 5.976562 7.433594 5.976562 C 8.246094 5.976562 9.007812 6.128906 9.722656 6.4375 C 10.4375 6.746094 11.058594 7.167969 11.59375 7.703125 C 12.128906 8.238281 12.550781 8.859375 12.859375 9.574219 C 13.167969 10.289062 13.320312 11.050781 13.320312 11.863281 C 13.320312 11.882812 13.328125 11.894531 13.347656 11.894531 Z M 13.347656 11.894531 "/>
<path style=" stroke:none;fill-rule:nonzero;fill:rgb(96.470588%,75.686276%,17.647059%);fill-opacity:1;" d="M 11.542969 22.300781 C 11.554688 22.300781 11.5625 22.292969 11.5625 22.28125 C 11.5625 21.730469 11.652344 21.210938 11.832031 20.726562 C 12.015625 20.242188 12.261719 19.820312 12.578125 19.457031 C 12.894531 19.09375 13.261719 18.808594 13.683594 18.597656 C 14.101562 18.390625 14.550781 18.285156 15.03125 18.285156 C 15.042969 18.285156 15.046875 18.277344 15.046875 18.265625 C 15.046875 18.253906 15.042969 18.246094 15.03125 18.246094 C 14.550781 18.246094 14.101562 18.140625 13.683594 17.933594 C 13.261719 17.722656 12.894531 17.4375 12.578125 17.074219 C 12.261719 16.710938 12.015625 16.289062 11.832031 15.804688 C 11.652344 15.320312 11.5625 14.800781 11.5625 14.25 C 11.5625 14.238281 11.554688 14.230469 11.542969 14.230469 C 11.53125 14.230469 11.527344 14.238281 11.527344 14.25 C 11.527344 14.800781 11.4375 15.320312 11.253906 15.804688 C 11.074219 16.289062 10.824219 16.710938 10.511719 17.074219 C 10.195312 17.4375 9.828125 17.722656 9.40625 17.933594 C 8.984375 18.140625 8.535156 18.246094 8.058594 18.246094 C 8.046875 18.246094 8.039062 18.253906 8.039062 18.265625 C 8.039062 18.277344 8.046875 18.285156 8.058594 18.285156 C 8.535156 18.285156 8.984375 18.390625 9.40625 18.597656 C 9.828125 18.808594 10.195312 19.09375 10.511719 19.457031 C 10.824219 19.820312 11.074219 20.242188 11.253906 20.726562 C 11.4375 21.210938 11.527344 21.730469 11.527344 22.28125 C 11.527344 22.292969 11.53125 22.300781 11.542969 22.300781 Z M 11.542969 22.300781 "/>
<path style=" stroke:none;fill-rule:nonzero;fill:rgb(8.627451%,62.7451%,36.470589%);fill-opacity:1;" d="M 37.878906 27.609375 C 37.894531 27.609375 37.902344 27.601562 37.902344 27.585938 C 37.902344 26.875 38.015625 26.207031 38.238281 25.582031 C 38.464844 24.957031 38.773438 24.410156 39.164062 23.941406 C 39.558594 23.472656 40.015625 23.105469 40.535156 22.835938 C 41.058594 22.566406 41.617188 22.433594 42.210938 22.433594 C 42.226562 22.433594 42.234375 22.425781 42.234375 22.40625 C 42.234375 22.390625 42.226562 22.382812 42.210938 22.382812 C 41.617188 22.382812 41.058594 22.246094 40.535156 21.976562 C 40.015625 21.707031 39.558594 21.339844 39.164062 20.871094 C 38.773438 20.402344 38.464844 19.855469 38.238281 19.234375 C 38.015625 18.609375 37.902344 17.941406 37.902344 17.230469 C 37.902344 17.210938 37.894531 17.203125 37.878906 17.203125 C 37.867188 17.203125 37.859375 17.210938 37.859375 17.230469 C 37.859375 17.941406 37.746094 18.609375 37.519531 19.234375 C 37.296875 19.855469 36.988281 20.402344 36.597656 20.871094 C 36.203125 21.339844 35.746094 21.707031 35.222656 21.976562 C 34.703125 22.246094 34.144531 22.382812 33.546875 22.382812 C 33.535156 22.382812 33.527344 22.390625 33.527344 22.40625 C 33.527344 22.425781 33.535156 22.433594 33.546875 22.433594 C 34.144531 22.433594 34.703125 22.566406 35.222656 22.835938 C 35.746094 23.105469 36.203125 23.472656 36.597656 23.941406 C 36.988281 24.410156 37.296875 24.957031 37.519531 25.582031 C 37.746094 26.207031 37.859375 26.875 37.859375 27.585938 C 37.859375 27.601562 37.867188 27.609375 37.878906 27.609375 Z M 37.878906 27.609375 "/>
</g>
</svg>
