<svg width="35" height="35" viewBox="0 0 35 35" fill="none" xmlns="http://www.w3.org/2000/svg">
<rect width="35" height="35" fill="#1F87FC"/>
<path d="M26.9792 27.4166V23.3333H25.5208V28L28.6562 31.1354L29.6771 30.1145L26.9792 27.4166ZM17.5 5.83329L8.85938 10.8281L17.5 15.8229L26.1406 10.8281L17.5 5.83329ZM4.375 23.2968V11.7031C4.375 11.1684 4.5026 10.6823 4.75781 10.2448C5.01302 9.80725 5.37153 9.45482 5.83333 9.18746L16.0417 3.31767C16.2847 3.19614 16.5217 3.09892 16.7526 3.026C16.9835 2.95308 17.2326 2.91663 17.5 2.91663C17.7674 2.91663 18.0226 2.95308 18.2656 3.026C18.5087 3.09892 18.7396 3.19614 18.9583 3.31767L29.1667 9.18746C29.6285 9.45482 29.987 9.80725 30.2422 10.2448C30.4974 10.6823 30.625 11.1684 30.625 11.7031V17.5H27.7083V13.2708L17.4635 19.177L7.29167 13.2708V23.2604L16.0417 28.3281V31.6822L5.83333 25.8125C5.37153 25.5451 5.01302 25.1927 4.75781 24.7552C4.5026 24.3177 4.375 23.8316 4.375 23.2968ZM26.25 35C24.2326 35 22.513 34.289 21.0911 32.8671C19.6693 31.4453 18.9583 29.7257 18.9583 27.7083C18.9583 25.6909 19.6693 23.9713 21.0911 22.5494C22.513 21.1276 24.2326 20.4166 26.25 20.4166C28.2674 20.4166 29.987 21.1276 31.4089 22.5494C32.8307 23.9713 33.5417 25.6909 33.5417 27.7083C33.5417 29.7257 32.8307 31.4453 31.4089 32.8671C29.987 34.289 28.2674 35 26.25 35Z" fill="white"/>
</svg>
